<svg width="82" height="18" viewBox="0 0 82 18" fill="none" xmlns="http://www.w3.org/2000/svg">
<path d="M0.910894 0.567804H12.0396V2.63906H7.65312V14.315H5.25152V2.63906H0.89296L0.910894 0.567804ZM11.5621 4.36241H13.6157V6.28714H13.6526C13.7317 6.00306 13.8621 5.73587 14.0374 5.49872C14.2246 5.23134 14.4535 4.99575 14.7154 4.80099C14.9773 4.58092 15.2751 4.40732 15.5956 4.28767C15.9036 4.15851 16.2337 4.09077 16.5676 4.08831C16.8239 4.08831 17.0073 4.10626 17.099 4.10626C17.1954 4.12753 17.2935 4.13986 17.3921 4.14313V6.24927C17.235 6.21437 17.0758 6.18973 16.9156 6.1755C16.7576 6.15411 16.5985 6.14181 16.439 6.13864C16.0791 6.13735 15.723 6.21244 15.3943 6.35893C15.0663 6.51183 14.7732 6.73027 14.5329 7.00082C14.2766 7.31819 14.0782 7.67821 13.9467 8.06437C13.7924 8.5375 13.718 9.03299 13.7264 9.53057V14.2602H11.5262L11.5621 4.36241ZM27.475 14.316H25.3177V12.9205H25.2808C25.0002 13.4304 24.5805 13.85 24.0705 14.1306C23.5778 14.4278 23.014 14.5862 22.4386 14.5891C21.923 14.6391 21.4028 14.5782 20.9127 14.4106C20.4227 14.243 19.9742 13.9725 19.5973 13.6173C18.9497 12.7831 18.6359 11.7377 18.717 10.6848V4.36044H20.9172V10.4645C20.846 11.1244 21.0296 11.7866 21.4307 12.3155C21.6122 12.5037 21.8325 12.6504 22.0762 12.7454C22.3198 12.8404 22.5812 12.8814 22.8423 12.8657C23.239 12.8779 23.6334 12.8027 23.9978 12.6454C24.2901 12.5188 24.5479 12.324 24.7494 12.0773C24.9508 11.8242 25.0947 11.5303 25.1711 11.2161C25.2623 10.863 25.3055 10.4992 25.2997 10.1346V4.36044H27.5V14.314L27.475 14.316ZM31.2155 11.1264C31.2246 11.3938 31.2955 11.6555 31.4228 11.8909C31.5502 12.1263 31.7304 12.329 31.9492 12.4829C32.4112 12.749 32.9377 12.8821 33.4706 12.8677C33.7042 12.8656 33.9373 12.8473 34.1684 12.8129C34.4196 12.7822 34.6661 12.7206 34.9021 12.6295C35.1244 12.551 35.321 12.4131 35.4704 12.2308C35.6226 12.0394 35.6941 11.7963 35.6698 11.553C35.6668 11.4218 35.6376 11.2925 35.5841 11.1727C35.5305 11.0529 35.4535 10.945 35.3577 10.8553C35.1391 10.6692 34.8912 10.5206 34.624 10.4157C34.29 10.2955 33.9465 10.2035 33.5972 10.1406C33.2124 10.0668 32.8275 9.97613 32.4238 9.88442C32.02 9.79272 31.6173 9.68508 31.2275 9.55451C30.8575 9.43706 30.5102 9.25741 30.2006 9.02325C29.897 8.80487 29.6515 8.51531 29.4858 8.17999C29.2904 7.78779 29.1958 7.35304 29.2107 6.9151C29.1882 6.43105 29.3286 5.95342 29.6095 5.55853C29.8729 5.1912 30.2179 4.88993 30.6173 4.6784C31.0417 4.44909 31.4996 4.2883 31.9742 4.20196C32.4398 4.11617 32.9123 4.07313 33.3858 4.07338C33.8794 4.07096 34.3716 4.12648 34.8523 4.23882C35.3034 4.33567 35.7324 4.51583 36.1174 4.77008C36.4989 5.01078 36.8191 5.33706 37.0525 5.723C37.3168 6.15102 37.4798 6.63376 37.529 7.13438H35.2361C35.2093 6.9133 35.1306 6.7017 35.0064 6.51686C34.8821 6.33202 34.7159 6.17918 34.5213 6.07086C34.1139 5.88131 33.6686 5.78722 33.2193 5.79576C33.0728 5.79576 32.8714 5.81369 32.669 5.83263C32.4631 5.86193 32.2604 5.911 32.0639 5.97915C31.8858 6.05023 31.7237 6.15631 31.5874 6.29112C31.5205 6.362 31.4684 6.44551 31.4342 6.53672C31.4 6.62794 31.3843 6.72506 31.388 6.82241C31.3827 6.9432 31.4047 7.0636 31.4523 7.17472C31.5 7.28584 31.572 7.38482 31.6631 7.4643C31.8819 7.64564 32.13 7.78824 32.3969 7.88593C32.7309 8.00611 33.0743 8.09813 33.4237 8.16104C33.8085 8.2348 34.2123 8.32652 34.62 8.41722C35.0278 8.50793 35.4086 8.61656 35.7934 8.74714C36.165 8.86065 36.5129 9.04065 36.8202 9.2784C37.1202 9.49879 37.3702 9.78003 37.554 10.1037C37.7475 10.4834 37.8421 10.9057 37.8291 11.3317C37.8482 11.8612 37.7094 12.3844 37.4304 12.8348C37.158 13.2414 36.8018 13.585 36.3856 13.8425C35.9399 14.1019 35.4581 14.2934 34.956 14.4107C34.4442 14.5249 33.9221 14.5863 33.3978 14.5941C32.81 14.5989 32.2242 14.5248 31.6561 14.3738C31.1571 14.2426 30.6848 14.0254 30.2604 13.7319C29.875 13.4476 29.5613 13.0773 29.3443 12.6504C29.107 12.1714 28.9816 11.6449 28.9774 11.1104H31.1996V11.1284L31.2155 11.1264ZM38.4572 4.36241H40.125V1.35622H42.3253V4.34647H44.3052V5.97815H42.3253V11.2938C42.3267 11.496 42.339 11.698 42.3622 11.8989C42.3801 12.0458 42.4237 12.1885 42.4908 12.3205C42.5681 12.434 42.6764 12.5229 42.8028 12.5766C42.991 12.6427 43.1896 12.6738 43.389 12.6684C43.5421 12.6715 43.6952 12.6655 43.8476 12.6504C44.0017 12.6348 44.1549 12.6102 44.3062 12.5766V14.2811C44.0679 14.318 43.8296 14.3359 43.5914 14.3549C43.3544 14.3859 43.1154 14.3982 42.8766 14.3917C42.4057 14.4063 41.9353 14.3505 41.4809 14.2263C41.1714 14.1362 40.8882 13.9728 40.6554 13.7498C40.4555 13.5266 40.318 13.2547 40.2566 12.9614C40.1816 12.6004 40.1385 12.2335 40.128 11.865V5.99908H38.4602V4.3674L38.4572 4.36241ZM45.8454 4.36241H47.917V5.71901H47.9539C48.2289 5.17076 48.681 4.73139 49.237 4.47207C49.799 4.21177 50.4121 4.0803 51.0314 4.08731C51.7396 4.06491 52.4431 4.20934 53.0851 4.50894C53.6527 4.7651 54.1497 5.15501 54.5336 5.64525C54.9313 6.14376 55.2243 6.71736 55.395 7.33174C55.7733 8.63518 55.7861 10.0175 55.4319 11.3277C55.2668 11.9247 55 12.4888 54.6433 12.9953C54.2917 13.4777 53.8339 13.8729 53.3054 14.1505C52.7166 14.4544 52.0608 14.6056 51.3983 14.5901C51.0786 14.5868 50.7597 14.5561 50.4452 14.4984C50.1301 14.4431 49.8225 14.3508 49.5291 14.2233C49.2376 14.097 48.9659 13.9291 48.7225 13.7249C48.4771 13.529 48.2664 13.2932 48.0995 13.0272H48.0626V17.995H45.8644V4.36241H45.8454ZM53.5267 9.34617C53.5302 8.90558 53.4683 8.46691 53.3433 8.04441C53.2379 7.64161 53.0577 7.26224 52.812 6.92608C52.5806 6.6082 52.2877 6.34006 51.9506 6.13763C51.5851 5.93515 51.1721 5.83398 50.7543 5.84458C50.3538 5.81858 49.9531 5.89199 49.5878 6.05824C49.2226 6.22449 48.9041 6.47844 48.6607 6.7975C48.1653 7.55899 47.9212 8.45665 47.9629 9.36412C47.9543 9.8358 48.0162 10.3061 48.1463 10.7596C48.2549 11.158 48.442 11.5308 48.6966 11.856C48.9323 12.1625 49.2329 12.413 49.5769 12.5896C49.9464 12.7799 50.3577 12.8745 50.7732 12.8647C51.2154 12.8773 51.6527 12.7695 52.0383 12.5527C52.375 12.3498 52.6679 12.0818 52.8997 11.7643C53.128 11.4251 53.2897 11.0456 53.3762 10.6459C53.4726 10.2199 53.5244 9.78496 53.5307 9.34818L53.5267 9.34617ZM57.3948 0.565796H59.595V2.63705H57.3948V0.565796ZM57.3948 4.36044H59.595V14.314H57.3948V4.36044ZM61.556 0.565796H63.7562V14.313H61.556V0.565796ZM70.4655 14.5881C69.7367 14.6046 69.0124 14.4688 68.3391 14.1894C67.7465 13.9377 67.2103 13.57 66.762 13.1079C66.3263 12.6251 65.9953 12.0574 65.79 11.4404C65.5588 10.7616 65.4412 10.0493 65.442 9.33224C65.4317 8.61931 65.5496 7.91032 65.79 7.23905C65.9996 6.62399 66.33 6.05702 66.762 5.57148C67.202 5.09968 67.7404 4.73047 68.3391 4.49002C69.015 4.21931 69.7375 4.08382 70.4655 4.09129C71.1944 4.07482 71.9186 4.21064 72.592 4.49002C73.1882 4.73508 73.7257 5.10365 74.1691 5.57148C74.6048 6.05429 74.9357 6.62207 75.1411 7.23905C75.3727 7.91258 75.4903 8.62002 75.4891 9.33224C75.5005 10.0501 75.3826 10.7642 75.1411 11.4404C74.9243 12.0521 74.5946 12.6177 74.1691 13.1079C73.7292 13.5798 73.1907 13.949 72.592 14.1894C71.9174 14.4623 71.1952 14.5985 70.4675 14.5901L70.4655 14.5881ZM70.4655 12.8468C70.9072 12.8548 71.3433 12.7472 71.7307 12.5348C72.0815 12.3363 72.3826 12.0606 72.6109 11.7284C72.8476 11.3893 73.0215 11.0105 73.1244 10.6101C73.3443 9.77507 73.3443 8.89735 73.1244 8.06236C73.0251 7.6606 72.8509 7.28117 72.6109 6.94399C72.3773 6.62125 72.0771 6.35241 71.7307 6.15558C71.3425 5.94533 70.907 5.83793 70.4655 5.84361C70.0239 5.83567 69.5878 5.9432 69.2004 6.15558C68.8544 6.35298 68.5543 6.62173 68.3202 6.94399C68.0802 7.28117 67.906 7.6606 67.8067 8.06236C67.5867 8.89735 67.5867 9.77507 67.8067 10.6101C67.906 11.0118 68.0802 11.3912 68.3202 11.7284C68.5532 12.0565 68.8533 12.3313 69.2004 12.5348C69.5857 12.7545 70.0243 12.8631 70.4675 12.8488L70.4655 12.8468ZM76.148 4.36044H77.8159V1.35424H80.0161V4.3445H81.996V5.97617H80.0191V11.2919C80.0205 11.494 80.0328 11.696 80.056 11.8969C80.0739 12.0438 80.1175 12.1865 80.1846 12.3185C80.2619 12.4321 80.3702 12.521 80.4966 12.5747C80.6848 12.6407 80.8835 12.6718 81.0828 12.6664C81.2359 12.6696 81.3891 12.6636 81.5414 12.6484C81.6956 12.6328 81.8487 12.6082 82 12.5747V14.2791C81.7617 14.316 81.5235 14.3339 81.2852 14.3529C81.0483 14.3839 80.8093 14.3962 80.5704 14.3897C80.0995 14.4043 79.6291 14.3485 79.1747 14.2243C78.8652 14.1342 78.582 13.9708 78.3493 13.7478C78.1493 13.5246 78.0118 13.2527 77.9505 12.9594C77.8754 12.5984 77.8324 12.2315 77.8219 11.863V5.9971H76.151V4.36542L76.148 4.36044Z" fill="black"/>
</svg>
